G04 (created by PCBNEW (2013-june-11)-stable) date Wed 28 May 2014 08:32:28 PM PDT*
%MOIN*%
G04 Gerber Fmt 3.4, Leading zero omitted, Abs format*
%FSLAX34Y34*%
G01*
G70*
G90*
G04 APERTURE LIST*
%ADD10C,0.00590551*%
%ADD11C,0.45*%
%ADD12C,0.12*%
%ADD13C,0.16*%
%ADD14C,0.035*%
%ADD15C,0.03*%
%ADD16C,0.01*%
G04 APERTURE END LIST*
G54D10*
G54D11*
X57350Y-58950D03*
G54D12*
X53100Y-58950D03*
X61600Y-58950D03*
G54D13*
X53000Y-61900D03*
X61600Y-61900D03*
G54D14*
X57350Y-58800D03*
G54D15*
X57350Y-58850D02*
X57350Y-62500D01*
G54D10*
G36*
X62530Y-61411D02*
X62482Y-61320D01*
X62450Y-61301D01*
X62450Y-58866D01*
X62417Y-58703D01*
X62354Y-58549D01*
X62261Y-58410D01*
X62144Y-58291D01*
X62006Y-58198D01*
X61852Y-58134D01*
X61689Y-58100D01*
X61522Y-58099D01*
X61358Y-58130D01*
X61204Y-58193D01*
X61064Y-58284D01*
X60945Y-58400D01*
X60851Y-58538D01*
X60850Y-58542D01*
X60850Y-55900D01*
X53850Y-55900D01*
X53850Y-58542D01*
X53761Y-58410D01*
X53644Y-58291D01*
X53506Y-58198D01*
X53352Y-58134D01*
X53189Y-58100D01*
X53022Y-58099D01*
X52858Y-58130D01*
X52704Y-58193D01*
X52564Y-58284D01*
X52445Y-58400D01*
X52351Y-58538D01*
X52285Y-58691D01*
X52251Y-58854D01*
X52248Y-59021D01*
X52278Y-59185D01*
X52340Y-59340D01*
X52430Y-59480D01*
X52546Y-59600D01*
X52683Y-59695D01*
X52836Y-59762D01*
X52998Y-59798D01*
X53165Y-59801D01*
X53329Y-59772D01*
X53485Y-59712D01*
X53625Y-59623D01*
X53746Y-59508D01*
X53842Y-59371D01*
X53850Y-59355D01*
X53850Y-60928D01*
X56435Y-62500D01*
X58264Y-62500D01*
X60850Y-60827D01*
X60850Y-59355D01*
X60930Y-59480D01*
X61046Y-59600D01*
X61183Y-59695D01*
X61336Y-59762D01*
X61498Y-59798D01*
X61665Y-59801D01*
X61829Y-59772D01*
X61985Y-59712D01*
X62125Y-59623D01*
X62246Y-59508D01*
X62342Y-59371D01*
X62410Y-59219D01*
X62447Y-59057D01*
X62450Y-58866D01*
X62450Y-61301D01*
X62336Y-61234D01*
X62265Y-61305D01*
X62265Y-61163D01*
X62179Y-61017D01*
X61996Y-60922D01*
X61799Y-60863D01*
X61594Y-60844D01*
X61389Y-60866D01*
X61192Y-60926D01*
X61020Y-61017D01*
X60934Y-61163D01*
X61600Y-61829D01*
X62265Y-61163D01*
X62265Y-61305D01*
X61670Y-61900D01*
X61676Y-61905D01*
X61605Y-61976D01*
X61600Y-61970D01*
X61529Y-62041D01*
X61529Y-61900D01*
X60863Y-61234D01*
X60717Y-61320D01*
X60622Y-61503D01*
X60563Y-61700D01*
X60544Y-61905D01*
X60566Y-62110D01*
X60626Y-62307D01*
X60717Y-62479D01*
X60863Y-62565D01*
X61529Y-61900D01*
X61529Y-62041D01*
X60934Y-62636D01*
X60990Y-62730D01*
X53650Y-62730D01*
X53798Y-62589D01*
X53917Y-62421D01*
X54001Y-62233D01*
X54046Y-62032D01*
X54050Y-61797D01*
X54010Y-61595D01*
X53931Y-61404D01*
X53817Y-61233D01*
X53672Y-61087D01*
X53501Y-60971D01*
X53311Y-60892D01*
X53110Y-60850D01*
X52904Y-60849D01*
X52702Y-60887D01*
X52511Y-60964D01*
X52338Y-61077D01*
X52191Y-61221D01*
X52075Y-61391D01*
X52069Y-61405D01*
X52069Y-56213D01*
X52084Y-56058D01*
X52125Y-55922D01*
X52192Y-55796D01*
X52282Y-55686D01*
X52392Y-55595D01*
X52517Y-55527D01*
X52653Y-55485D01*
X52807Y-55469D01*
X61786Y-55469D01*
X61941Y-55484D01*
X62077Y-55525D01*
X62203Y-55592D01*
X62313Y-55682D01*
X62404Y-55792D01*
X62472Y-55917D01*
X62514Y-56053D01*
X62530Y-56207D01*
X62530Y-61411D01*
X62530Y-61411D01*
G37*
G54D16*
X62530Y-61411D02*
X62482Y-61320D01*
X62450Y-61301D01*
X62450Y-58866D01*
X62417Y-58703D01*
X62354Y-58549D01*
X62261Y-58410D01*
X62144Y-58291D01*
X62006Y-58198D01*
X61852Y-58134D01*
X61689Y-58100D01*
X61522Y-58099D01*
X61358Y-58130D01*
X61204Y-58193D01*
X61064Y-58284D01*
X60945Y-58400D01*
X60851Y-58538D01*
X60850Y-58542D01*
X60850Y-55900D01*
X53850Y-55900D01*
X53850Y-58542D01*
X53761Y-58410D01*
X53644Y-58291D01*
X53506Y-58198D01*
X53352Y-58134D01*
X53189Y-58100D01*
X53022Y-58099D01*
X52858Y-58130D01*
X52704Y-58193D01*
X52564Y-58284D01*
X52445Y-58400D01*
X52351Y-58538D01*
X52285Y-58691D01*
X52251Y-58854D01*
X52248Y-59021D01*
X52278Y-59185D01*
X52340Y-59340D01*
X52430Y-59480D01*
X52546Y-59600D01*
X52683Y-59695D01*
X52836Y-59762D01*
X52998Y-59798D01*
X53165Y-59801D01*
X53329Y-59772D01*
X53485Y-59712D01*
X53625Y-59623D01*
X53746Y-59508D01*
X53842Y-59371D01*
X53850Y-59355D01*
X53850Y-60928D01*
X56435Y-62500D01*
X58264Y-62500D01*
X60850Y-60827D01*
X60850Y-59355D01*
X60930Y-59480D01*
X61046Y-59600D01*
X61183Y-59695D01*
X61336Y-59762D01*
X61498Y-59798D01*
X61665Y-59801D01*
X61829Y-59772D01*
X61985Y-59712D01*
X62125Y-59623D01*
X62246Y-59508D01*
X62342Y-59371D01*
X62410Y-59219D01*
X62447Y-59057D01*
X62450Y-58866D01*
X62450Y-61301D01*
X62336Y-61234D01*
X62265Y-61305D01*
X62265Y-61163D01*
X62179Y-61017D01*
X61996Y-60922D01*
X61799Y-60863D01*
X61594Y-60844D01*
X61389Y-60866D01*
X61192Y-60926D01*
X61020Y-61017D01*
X60934Y-61163D01*
X61600Y-61829D01*
X62265Y-61163D01*
X62265Y-61305D01*
X61670Y-61900D01*
X61676Y-61905D01*
X61605Y-61976D01*
X61600Y-61970D01*
X61529Y-62041D01*
X61529Y-61900D01*
X60863Y-61234D01*
X60717Y-61320D01*
X60622Y-61503D01*
X60563Y-61700D01*
X60544Y-61905D01*
X60566Y-62110D01*
X60626Y-62307D01*
X60717Y-62479D01*
X60863Y-62565D01*
X61529Y-61900D01*
X61529Y-62041D01*
X60934Y-62636D01*
X60990Y-62730D01*
X53650Y-62730D01*
X53798Y-62589D01*
X53917Y-62421D01*
X54001Y-62233D01*
X54046Y-62032D01*
X54050Y-61797D01*
X54010Y-61595D01*
X53931Y-61404D01*
X53817Y-61233D01*
X53672Y-61087D01*
X53501Y-60971D01*
X53311Y-60892D01*
X53110Y-60850D01*
X52904Y-60849D01*
X52702Y-60887D01*
X52511Y-60964D01*
X52338Y-61077D01*
X52191Y-61221D01*
X52075Y-61391D01*
X52069Y-61405D01*
X52069Y-56213D01*
X52084Y-56058D01*
X52125Y-55922D01*
X52192Y-55796D01*
X52282Y-55686D01*
X52392Y-55595D01*
X52517Y-55527D01*
X52653Y-55485D01*
X52807Y-55469D01*
X61786Y-55469D01*
X61941Y-55484D01*
X62077Y-55525D01*
X62203Y-55592D01*
X62313Y-55682D01*
X62404Y-55792D01*
X62472Y-55917D01*
X62514Y-56053D01*
X62530Y-56207D01*
X62530Y-61411D01*
M02*
