G04 (created by PCBNEW (2013-june-11)-stable) date Wed 28 May 2014 08:32:28 PM PDT*
%MOIN*%
G04 Gerber Fmt 3.4, Leading zero omitted, Abs format*
%FSLAX34Y34*%
G01*
G70*
G90*
G04 APERTURE LIST*
%ADD10C,0.00590551*%
%ADD11R,0.0315X0.0394*%
%ADD12R,0.025X0.045*%
%ADD13R,0.0472X0.0472*%
%ADD14C,0.12*%
%ADD15C,0.16*%
%ADD16C,0.035*%
%ADD17C,0.01*%
G04 APERTURE END LIST*
G54D10*
G54D11*
X57350Y-60033D03*
X56975Y-59167D03*
X57725Y-59167D03*
G54D12*
X57650Y-58300D03*
X58250Y-58300D03*
G54D13*
X56137Y-58300D03*
X56963Y-58300D03*
G54D14*
X53100Y-58950D03*
X61600Y-58950D03*
G54D15*
X53000Y-61900D03*
X61600Y-61900D03*
G54D16*
X57350Y-58800D03*
G54D17*
X57350Y-58800D02*
X57350Y-59050D01*
X57467Y-59167D02*
X57725Y-59167D01*
X57350Y-59050D02*
X57467Y-59167D01*
X57725Y-59167D02*
X57717Y-59167D01*
X57725Y-59167D02*
X58033Y-59167D01*
X58250Y-58950D02*
X58250Y-58300D01*
X58033Y-59167D02*
X58250Y-58950D01*
X56963Y-58300D02*
X57650Y-58300D01*
X56137Y-58300D02*
X56137Y-58937D01*
X56367Y-59167D02*
X56975Y-59167D01*
X56137Y-58937D02*
X56367Y-59167D01*
G54D10*
G36*
X62530Y-61402D02*
X62453Y-61287D01*
X62453Y-58935D01*
X62434Y-58770D01*
X62384Y-58611D01*
X62319Y-58489D01*
X62193Y-58426D01*
X62123Y-58497D01*
X62123Y-58356D01*
X62060Y-58230D01*
X61912Y-58155D01*
X61751Y-58109D01*
X61585Y-58096D01*
X61420Y-58115D01*
X61261Y-58165D01*
X61139Y-58230D01*
X61076Y-58356D01*
X61600Y-58879D01*
X62123Y-58356D01*
X62123Y-58497D01*
X61670Y-58950D01*
X62193Y-59473D01*
X62319Y-59410D01*
X62394Y-59262D01*
X62440Y-59101D01*
X62453Y-58935D01*
X62453Y-61287D01*
X62417Y-61233D01*
X62272Y-61087D01*
X62123Y-60986D01*
X62123Y-59543D01*
X61600Y-59020D01*
X61529Y-59091D01*
X61529Y-58950D01*
X61006Y-58426D01*
X60880Y-58489D01*
X60805Y-58637D01*
X60759Y-58798D01*
X60746Y-58964D01*
X60765Y-59129D01*
X60815Y-59288D01*
X60880Y-59410D01*
X61006Y-59473D01*
X61529Y-58950D01*
X61529Y-59091D01*
X61076Y-59543D01*
X61139Y-59669D01*
X61287Y-59744D01*
X61448Y-59790D01*
X61614Y-59803D01*
X61779Y-59784D01*
X61938Y-59734D01*
X62060Y-59669D01*
X62123Y-59543D01*
X62123Y-60986D01*
X62101Y-60971D01*
X61911Y-60892D01*
X61710Y-60850D01*
X61504Y-60849D01*
X61302Y-60887D01*
X61111Y-60964D01*
X60938Y-61077D01*
X60791Y-61221D01*
X60675Y-61391D01*
X60594Y-61580D01*
X60551Y-61782D01*
X60548Y-61988D01*
X60585Y-62190D01*
X60661Y-62382D01*
X60773Y-62555D01*
X60916Y-62703D01*
X60954Y-62730D01*
X58625Y-62730D01*
X58625Y-58502D01*
X58625Y-58050D01*
X58615Y-58002D01*
X58596Y-57957D01*
X58569Y-57916D01*
X58535Y-57881D01*
X58494Y-57854D01*
X58449Y-57835D01*
X58401Y-57825D01*
X58352Y-57824D01*
X58100Y-57824D01*
X58052Y-57834D01*
X58007Y-57853D01*
X57966Y-57880D01*
X57950Y-57896D01*
X57935Y-57881D01*
X57894Y-57854D01*
X57849Y-57835D01*
X57801Y-57825D01*
X57752Y-57824D01*
X57500Y-57824D01*
X57452Y-57834D01*
X57407Y-57853D01*
X57367Y-57879D01*
X57359Y-57870D01*
X57318Y-57843D01*
X57273Y-57824D01*
X57225Y-57814D01*
X57176Y-57813D01*
X56702Y-57813D01*
X56654Y-57823D01*
X56609Y-57842D01*
X56568Y-57869D01*
X56549Y-57887D01*
X56533Y-57870D01*
X56492Y-57843D01*
X56447Y-57824D01*
X56399Y-57814D01*
X56350Y-57813D01*
X55876Y-57813D01*
X55828Y-57823D01*
X55783Y-57842D01*
X55742Y-57869D01*
X55707Y-57903D01*
X55680Y-57944D01*
X55661Y-57989D01*
X55651Y-58037D01*
X55650Y-58086D01*
X55650Y-58560D01*
X55660Y-58608D01*
X55679Y-58653D01*
X55706Y-58694D01*
X55740Y-58729D01*
X55781Y-58756D01*
X55826Y-58775D01*
X55837Y-58778D01*
X55837Y-58937D01*
X55839Y-58964D01*
X55842Y-58992D01*
X55842Y-58993D01*
X55842Y-58995D01*
X55850Y-59021D01*
X55858Y-59048D01*
X55859Y-59049D01*
X55859Y-59051D01*
X55872Y-59075D01*
X55885Y-59100D01*
X55886Y-59101D01*
X55887Y-59103D01*
X55904Y-59124D01*
X55921Y-59146D01*
X55924Y-59148D01*
X55924Y-59148D01*
X55924Y-59148D01*
X55924Y-59149D01*
X56154Y-59379D01*
X56176Y-59396D01*
X56197Y-59414D01*
X56198Y-59415D01*
X56200Y-59416D01*
X56224Y-59429D01*
X56248Y-59442D01*
X56250Y-59443D01*
X56251Y-59443D01*
X56278Y-59452D01*
X56304Y-59460D01*
X56306Y-59460D01*
X56307Y-59461D01*
X56335Y-59463D01*
X56362Y-59466D01*
X56365Y-59466D01*
X56365Y-59466D01*
X56366Y-59466D01*
X56367Y-59467D01*
X56589Y-59467D01*
X56595Y-59481D01*
X56622Y-59522D01*
X56657Y-59557D01*
X56698Y-59584D01*
X56743Y-59603D01*
X56791Y-59613D01*
X56840Y-59614D01*
X57074Y-59614D01*
X57074Y-59614D01*
X57033Y-59641D01*
X56998Y-59675D01*
X56971Y-59716D01*
X56952Y-59761D01*
X56942Y-59809D01*
X56942Y-59858D01*
X56942Y-59920D01*
X57005Y-59983D01*
X57300Y-59983D01*
X57300Y-59648D01*
X57241Y-59589D01*
X57250Y-59585D01*
X57291Y-59558D01*
X57326Y-59524D01*
X57350Y-59488D01*
X57372Y-59522D01*
X57407Y-59557D01*
X57448Y-59584D01*
X57458Y-59589D01*
X57400Y-59648D01*
X57400Y-59983D01*
X57695Y-59983D01*
X57757Y-59920D01*
X57757Y-59858D01*
X57757Y-59809D01*
X57747Y-59761D01*
X57728Y-59716D01*
X57701Y-59675D01*
X57666Y-59641D01*
X57625Y-59614D01*
X57625Y-59614D01*
X57907Y-59614D01*
X57955Y-59604D01*
X58000Y-59585D01*
X58041Y-59558D01*
X58076Y-59524D01*
X58103Y-59483D01*
X58115Y-59453D01*
X58117Y-59453D01*
X58144Y-59445D01*
X58145Y-59444D01*
X58147Y-59444D01*
X58171Y-59431D01*
X58196Y-59418D01*
X58197Y-59417D01*
X58199Y-59416D01*
X58220Y-59399D01*
X58242Y-59382D01*
X58244Y-59379D01*
X58244Y-59379D01*
X58244Y-59379D01*
X58245Y-59379D01*
X58462Y-59162D01*
X58479Y-59140D01*
X58497Y-59119D01*
X58498Y-59118D01*
X58499Y-59116D01*
X58512Y-59092D01*
X58525Y-59068D01*
X58526Y-59066D01*
X58526Y-59065D01*
X58535Y-59038D01*
X58543Y-59012D01*
X58543Y-59010D01*
X58544Y-59009D01*
X58546Y-58981D01*
X58549Y-58954D01*
X58549Y-58951D01*
X58549Y-58951D01*
X58549Y-58950D01*
X58550Y-58950D01*
X58550Y-58703D01*
X58568Y-58685D01*
X58595Y-58644D01*
X58614Y-58599D01*
X58624Y-58551D01*
X58625Y-58502D01*
X58625Y-62730D01*
X57757Y-62730D01*
X57757Y-60207D01*
X57757Y-60145D01*
X57695Y-60083D01*
X57400Y-60083D01*
X57400Y-60417D01*
X57462Y-60480D01*
X57532Y-60480D01*
X57580Y-60470D01*
X57625Y-60451D01*
X57666Y-60424D01*
X57701Y-60390D01*
X57728Y-60349D01*
X57747Y-60304D01*
X57757Y-60256D01*
X57757Y-60207D01*
X57757Y-62730D01*
X57300Y-62730D01*
X57300Y-60417D01*
X57300Y-60083D01*
X57005Y-60083D01*
X56942Y-60145D01*
X56942Y-60207D01*
X56942Y-60256D01*
X56952Y-60304D01*
X56971Y-60349D01*
X56998Y-60390D01*
X57033Y-60424D01*
X57074Y-60451D01*
X57119Y-60470D01*
X57167Y-60480D01*
X57237Y-60480D01*
X57300Y-60417D01*
X57300Y-62730D01*
X54055Y-62730D01*
X54055Y-61894D01*
X54033Y-61689D01*
X53973Y-61492D01*
X53953Y-61456D01*
X53953Y-58935D01*
X53934Y-58770D01*
X53884Y-58611D01*
X53819Y-58489D01*
X53693Y-58426D01*
X53623Y-58497D01*
X53623Y-58356D01*
X53560Y-58230D01*
X53412Y-58155D01*
X53251Y-58109D01*
X53085Y-58096D01*
X52920Y-58115D01*
X52761Y-58165D01*
X52639Y-58230D01*
X52576Y-58356D01*
X53100Y-58879D01*
X53623Y-58356D01*
X53623Y-58497D01*
X53170Y-58950D01*
X53693Y-59473D01*
X53819Y-59410D01*
X53894Y-59262D01*
X53940Y-59101D01*
X53953Y-58935D01*
X53953Y-61456D01*
X53882Y-61320D01*
X53736Y-61234D01*
X53665Y-61305D01*
X53665Y-61163D01*
X53623Y-61092D01*
X53623Y-59543D01*
X53100Y-59020D01*
X53029Y-59091D01*
X53029Y-58950D01*
X52506Y-58426D01*
X52380Y-58489D01*
X52305Y-58637D01*
X52259Y-58798D01*
X52246Y-58964D01*
X52265Y-59129D01*
X52315Y-59288D01*
X52380Y-59410D01*
X52506Y-59473D01*
X53029Y-58950D01*
X53029Y-59091D01*
X52576Y-59543D01*
X52639Y-59669D01*
X52787Y-59744D01*
X52948Y-59790D01*
X53114Y-59803D01*
X53279Y-59784D01*
X53438Y-59734D01*
X53560Y-59669D01*
X53623Y-59543D01*
X53623Y-61092D01*
X53579Y-61017D01*
X53396Y-60922D01*
X53199Y-60863D01*
X52994Y-60844D01*
X52789Y-60866D01*
X52592Y-60926D01*
X52420Y-61017D01*
X52334Y-61163D01*
X53000Y-61829D01*
X53665Y-61163D01*
X53665Y-61305D01*
X53070Y-61900D01*
X53736Y-62565D01*
X53882Y-62479D01*
X53977Y-62296D01*
X54036Y-62099D01*
X54055Y-61894D01*
X54055Y-62730D01*
X53609Y-62730D01*
X53665Y-62636D01*
X53000Y-61970D01*
X52994Y-61976D01*
X52923Y-61905D01*
X52929Y-61900D01*
X52263Y-61234D01*
X52117Y-61320D01*
X52069Y-61413D01*
X52069Y-56213D01*
X52084Y-56058D01*
X52125Y-55922D01*
X52192Y-55796D01*
X52282Y-55686D01*
X52392Y-55595D01*
X52517Y-55527D01*
X52653Y-55485D01*
X52807Y-55469D01*
X61786Y-55469D01*
X61941Y-55484D01*
X62077Y-55525D01*
X62203Y-55592D01*
X62313Y-55682D01*
X62404Y-55792D01*
X62472Y-55917D01*
X62514Y-56053D01*
X62530Y-56207D01*
X62530Y-61402D01*
X62530Y-61402D01*
G37*
G54D17*
X62530Y-61402D02*
X62453Y-61287D01*
X62453Y-58935D01*
X62434Y-58770D01*
X62384Y-58611D01*
X62319Y-58489D01*
X62193Y-58426D01*
X62123Y-58497D01*
X62123Y-58356D01*
X62060Y-58230D01*
X61912Y-58155D01*
X61751Y-58109D01*
X61585Y-58096D01*
X61420Y-58115D01*
X61261Y-58165D01*
X61139Y-58230D01*
X61076Y-58356D01*
X61600Y-58879D01*
X62123Y-58356D01*
X62123Y-58497D01*
X61670Y-58950D01*
X62193Y-59473D01*
X62319Y-59410D01*
X62394Y-59262D01*
X62440Y-59101D01*
X62453Y-58935D01*
X62453Y-61287D01*
X62417Y-61233D01*
X62272Y-61087D01*
X62123Y-60986D01*
X62123Y-59543D01*
X61600Y-59020D01*
X61529Y-59091D01*
X61529Y-58950D01*
X61006Y-58426D01*
X60880Y-58489D01*
X60805Y-58637D01*
X60759Y-58798D01*
X60746Y-58964D01*
X60765Y-59129D01*
X60815Y-59288D01*
X60880Y-59410D01*
X61006Y-59473D01*
X61529Y-58950D01*
X61529Y-59091D01*
X61076Y-59543D01*
X61139Y-59669D01*
X61287Y-59744D01*
X61448Y-59790D01*
X61614Y-59803D01*
X61779Y-59784D01*
X61938Y-59734D01*
X62060Y-59669D01*
X62123Y-59543D01*
X62123Y-60986D01*
X62101Y-60971D01*
X61911Y-60892D01*
X61710Y-60850D01*
X61504Y-60849D01*
X61302Y-60887D01*
X61111Y-60964D01*
X60938Y-61077D01*
X60791Y-61221D01*
X60675Y-61391D01*
X60594Y-61580D01*
X60551Y-61782D01*
X60548Y-61988D01*
X60585Y-62190D01*
X60661Y-62382D01*
X60773Y-62555D01*
X60916Y-62703D01*
X60954Y-62730D01*
X58625Y-62730D01*
X58625Y-58502D01*
X58625Y-58050D01*
X58615Y-58002D01*
X58596Y-57957D01*
X58569Y-57916D01*
X58535Y-57881D01*
X58494Y-57854D01*
X58449Y-57835D01*
X58401Y-57825D01*
X58352Y-57824D01*
X58100Y-57824D01*
X58052Y-57834D01*
X58007Y-57853D01*
X57966Y-57880D01*
X57950Y-57896D01*
X57935Y-57881D01*
X57894Y-57854D01*
X57849Y-57835D01*
X57801Y-57825D01*
X57752Y-57824D01*
X57500Y-57824D01*
X57452Y-57834D01*
X57407Y-57853D01*
X57367Y-57879D01*
X57359Y-57870D01*
X57318Y-57843D01*
X57273Y-57824D01*
X57225Y-57814D01*
X57176Y-57813D01*
X56702Y-57813D01*
X56654Y-57823D01*
X56609Y-57842D01*
X56568Y-57869D01*
X56549Y-57887D01*
X56533Y-57870D01*
X56492Y-57843D01*
X56447Y-57824D01*
X56399Y-57814D01*
X56350Y-57813D01*
X55876Y-57813D01*
X55828Y-57823D01*
X55783Y-57842D01*
X55742Y-57869D01*
X55707Y-57903D01*
X55680Y-57944D01*
X55661Y-57989D01*
X55651Y-58037D01*
X55650Y-58086D01*
X55650Y-58560D01*
X55660Y-58608D01*
X55679Y-58653D01*
X55706Y-58694D01*
X55740Y-58729D01*
X55781Y-58756D01*
X55826Y-58775D01*
X55837Y-58778D01*
X55837Y-58937D01*
X55839Y-58964D01*
X55842Y-58992D01*
X55842Y-58993D01*
X55842Y-58995D01*
X55850Y-59021D01*
X55858Y-59048D01*
X55859Y-59049D01*
X55859Y-59051D01*
X55872Y-59075D01*
X55885Y-59100D01*
X55886Y-59101D01*
X55887Y-59103D01*
X55904Y-59124D01*
X55921Y-59146D01*
X55924Y-59148D01*
X55924Y-59148D01*
X55924Y-59148D01*
X55924Y-59149D01*
X56154Y-59379D01*
X56176Y-59396D01*
X56197Y-59414D01*
X56198Y-59415D01*
X56200Y-59416D01*
X56224Y-59429D01*
X56248Y-59442D01*
X56250Y-59443D01*
X56251Y-59443D01*
X56278Y-59452D01*
X56304Y-59460D01*
X56306Y-59460D01*
X56307Y-59461D01*
X56335Y-59463D01*
X56362Y-59466D01*
X56365Y-59466D01*
X56365Y-59466D01*
X56366Y-59466D01*
X56367Y-59467D01*
X56589Y-59467D01*
X56595Y-59481D01*
X56622Y-59522D01*
X56657Y-59557D01*
X56698Y-59584D01*
X56743Y-59603D01*
X56791Y-59613D01*
X56840Y-59614D01*
X57074Y-59614D01*
X57074Y-59614D01*
X57033Y-59641D01*
X56998Y-59675D01*
X56971Y-59716D01*
X56952Y-59761D01*
X56942Y-59809D01*
X56942Y-59858D01*
X56942Y-59920D01*
X57005Y-59983D01*
X57300Y-59983D01*
X57300Y-59648D01*
X57241Y-59589D01*
X57250Y-59585D01*
X57291Y-59558D01*
X57326Y-59524D01*
X57350Y-59488D01*
X57372Y-59522D01*
X57407Y-59557D01*
X57448Y-59584D01*
X57458Y-59589D01*
X57400Y-59648D01*
X57400Y-59983D01*
X57695Y-59983D01*
X57757Y-59920D01*
X57757Y-59858D01*
X57757Y-59809D01*
X57747Y-59761D01*
X57728Y-59716D01*
X57701Y-59675D01*
X57666Y-59641D01*
X57625Y-59614D01*
X57625Y-59614D01*
X57907Y-59614D01*
X57955Y-59604D01*
X58000Y-59585D01*
X58041Y-59558D01*
X58076Y-59524D01*
X58103Y-59483D01*
X58115Y-59453D01*
X58117Y-59453D01*
X58144Y-59445D01*
X58145Y-59444D01*
X58147Y-59444D01*
X58171Y-59431D01*
X58196Y-59418D01*
X58197Y-59417D01*
X58199Y-59416D01*
X58220Y-59399D01*
X58242Y-59382D01*
X58244Y-59379D01*
X58244Y-59379D01*
X58244Y-59379D01*
X58245Y-59379D01*
X58462Y-59162D01*
X58479Y-59140D01*
X58497Y-59119D01*
X58498Y-59118D01*
X58499Y-59116D01*
X58512Y-59092D01*
X58525Y-59068D01*
X58526Y-59066D01*
X58526Y-59065D01*
X58535Y-59038D01*
X58543Y-59012D01*
X58543Y-59010D01*
X58544Y-59009D01*
X58546Y-58981D01*
X58549Y-58954D01*
X58549Y-58951D01*
X58549Y-58951D01*
X58549Y-58950D01*
X58550Y-58950D01*
X58550Y-58703D01*
X58568Y-58685D01*
X58595Y-58644D01*
X58614Y-58599D01*
X58624Y-58551D01*
X58625Y-58502D01*
X58625Y-62730D01*
X57757Y-62730D01*
X57757Y-60207D01*
X57757Y-60145D01*
X57695Y-60083D01*
X57400Y-60083D01*
X57400Y-60417D01*
X57462Y-60480D01*
X57532Y-60480D01*
X57580Y-60470D01*
X57625Y-60451D01*
X57666Y-60424D01*
X57701Y-60390D01*
X57728Y-60349D01*
X57747Y-60304D01*
X57757Y-60256D01*
X57757Y-60207D01*
X57757Y-62730D01*
X57300Y-62730D01*
X57300Y-60417D01*
X57300Y-60083D01*
X57005Y-60083D01*
X56942Y-60145D01*
X56942Y-60207D01*
X56942Y-60256D01*
X56952Y-60304D01*
X56971Y-60349D01*
X56998Y-60390D01*
X57033Y-60424D01*
X57074Y-60451D01*
X57119Y-60470D01*
X57167Y-60480D01*
X57237Y-60480D01*
X57300Y-60417D01*
X57300Y-62730D01*
X54055Y-62730D01*
X54055Y-61894D01*
X54033Y-61689D01*
X53973Y-61492D01*
X53953Y-61456D01*
X53953Y-58935D01*
X53934Y-58770D01*
X53884Y-58611D01*
X53819Y-58489D01*
X53693Y-58426D01*
X53623Y-58497D01*
X53623Y-58356D01*
X53560Y-58230D01*
X53412Y-58155D01*
X53251Y-58109D01*
X53085Y-58096D01*
X52920Y-58115D01*
X52761Y-58165D01*
X52639Y-58230D01*
X52576Y-58356D01*
X53100Y-58879D01*
X53623Y-58356D01*
X53623Y-58497D01*
X53170Y-58950D01*
X53693Y-59473D01*
X53819Y-59410D01*
X53894Y-59262D01*
X53940Y-59101D01*
X53953Y-58935D01*
X53953Y-61456D01*
X53882Y-61320D01*
X53736Y-61234D01*
X53665Y-61305D01*
X53665Y-61163D01*
X53623Y-61092D01*
X53623Y-59543D01*
X53100Y-59020D01*
X53029Y-59091D01*
X53029Y-58950D01*
X52506Y-58426D01*
X52380Y-58489D01*
X52305Y-58637D01*
X52259Y-58798D01*
X52246Y-58964D01*
X52265Y-59129D01*
X52315Y-59288D01*
X52380Y-59410D01*
X52506Y-59473D01*
X53029Y-58950D01*
X53029Y-59091D01*
X52576Y-59543D01*
X52639Y-59669D01*
X52787Y-59744D01*
X52948Y-59790D01*
X53114Y-59803D01*
X53279Y-59784D01*
X53438Y-59734D01*
X53560Y-59669D01*
X53623Y-59543D01*
X53623Y-61092D01*
X53579Y-61017D01*
X53396Y-60922D01*
X53199Y-60863D01*
X52994Y-60844D01*
X52789Y-60866D01*
X52592Y-60926D01*
X52420Y-61017D01*
X52334Y-61163D01*
X53000Y-61829D01*
X53665Y-61163D01*
X53665Y-61305D01*
X53070Y-61900D01*
X53736Y-62565D01*
X53882Y-62479D01*
X53977Y-62296D01*
X54036Y-62099D01*
X54055Y-61894D01*
X54055Y-62730D01*
X53609Y-62730D01*
X53665Y-62636D01*
X53000Y-61970D01*
X52994Y-61976D01*
X52923Y-61905D01*
X52929Y-61900D01*
X52263Y-61234D01*
X52117Y-61320D01*
X52069Y-61413D01*
X52069Y-56213D01*
X52084Y-56058D01*
X52125Y-55922D01*
X52192Y-55796D01*
X52282Y-55686D01*
X52392Y-55595D01*
X52517Y-55527D01*
X52653Y-55485D01*
X52807Y-55469D01*
X61786Y-55469D01*
X61941Y-55484D01*
X62077Y-55525D01*
X62203Y-55592D01*
X62313Y-55682D01*
X62404Y-55792D01*
X62472Y-55917D01*
X62514Y-56053D01*
X62530Y-56207D01*
X62530Y-61402D01*
M02*
